<?xml version="1.0" encoding="utf-8"?>
<svg width="20px" height="20px" viewBox="0 0 20 20" version="1.1" xmlns:xlink="http://www.w3.org/1999/xlink" xmlns="http://www.w3.org/2000/svg">
  <desc>Created with Lunacy</desc>
  <defs>
    <filter filterUnits="userSpaceOnUse" color-interpolation-filters="sRGB" id="filter_1">
      <feFlood flood-opacity="0" result="BackgroundImageFix" />
      <feColorMatrix in="SourceAlpha" type="matrix" values="0 0 0 0 0 0 0 0 0 0 0 0 0 0 0 0 0 0 127 0" />
      <feOffset dx="0" dy="1" />
      <feGaussianBlur stdDeviation="1" />
      <feColorMatrix type="matrix" values="0 0 0 0 0 0 0 0 0 0 0 0 0 0 0 0 0 0 1 0" />
      <feBlend mode="normal" in2="BackgroundImageFix" result="effect0_dropShadow" />
      <feBlend mode="normal" in="SourceGraphic" in2="effect0_dropShadow" result="shape" />
    </filter>
    <path d="M5.03031 14C5.03031 14 2.81107 12.3013 2.03031 11C1.24955 9.69874 -0.229943 8.04101 0.030309 7C0.290561 5.95899 1.24955 5.63091 2.03031 6.41167C2.81107 7.19243 3.33701 8.88407 3.85751 8.62382C4.37802 8.36357 3.98764 5.89117 3.46713 4.45978C2.94663 3.02839 2.40396 1.74507e-07 3.46713 0C4.53031 -9.28378e-08 4.53031 1 5.03031 2.5C5.53031 4 5.13993 6 5.53031 6C5.92069 6 6.06966 5.65063 6.06966 5C6.06966 4.82319 6.10432 4.67375 6.17471 4.54986C6.36333 4.21788 6.80845 4.0694 7.53031 4.0694C8.52155 4.0694 8.03031 6 8.53031 6C9.03031 6 9.03031 6.04101 9.03031 5C9.03031 3.95899 9.49395 4.0694 10.4939 4.0694C11.4939 4.0694 11.0098 6 11.5303 6C12.0508 6 11.5303 5 12.0303 5C12.5303 5 13.0303 5.15773 13.0303 7.5C13.0303 9.84227 13.3111 9.95899 12.5303 11C11.7496 12.041 11.0303 13 11.0303 13C11.0303 13 11.0303 14 10.4939 14C9.95759 14 9.68094 13 9.03031 13C8.37968 13 8.03031 14 8.03031 14L5.03031 14C5.03031 14 2.81107 12.3013 2.03031 11C1.24955 9.69874 -0.229943 8.04101 0.030309 7C0.290561 5.95899 1.24955 5.63091 2.03031 6.41167C2.81107 7.19243 3.33701 8.88407 3.85751 8.62382C4.37802 8.36357 3.98764 5.89117 3.46713 4.45978C2.94663 3.02839 2.40396 1.74507e-07 3.46713 0C4.53031 -9.28378e-08 4.53031 1 5.03031 2.5C5.53031 4 5.13993 6 5.53031 6C5.92069 6 6.06966 5.65063 6.06966 5C6.06966 4.82319 6.10432 4.67375 6.17471 4.54986C6.36333 4.21788 6.80845 4.0694 7.53031 4.0694C8.52155 4.0694 8.03031 6 8.53031 6C9.03031 6 9.03031 6.04101 9.03031 5C9.03031 3.95899 9.49395 4.0694 10.4939 4.0694C11.4939 4.0694 11.0098 6 11.5303 6C12.0508 6 11.5303 5 12.0303 5C12.5303 5 13.0303 5.15773 13.0303 7.5C13.0303 9.84227 13.3111 9.95899 12.5303 11C11.7496 12.041 11.0303 13 11.0303 13C11.0303 13 11.0303 14 10.4939 14C9.95759 14 9.68094 13 9.03031 13C8.37968 13 8.03031 14 8.03031 14L5.03031 14ZM11.0303 12L11.0303 8L10.0303 8L10.0303 12L11.0303 12L11.0303 8L10.0303 8L10.0303 12L11.0303 12ZM8.03031 11C8.03031 11.2709 8.26224 12 8.53031 12C8.80645 12 9.03031 11.2754 9.03031 11L9.03031 9C9.03031 8.72912 8.79838 8 8.53031 8C8.25417 8 8.03031 8.72458 8.03031 9L8.03031 11C8.03031 11.2709 8.26224 12 8.53031 12C8.80645 12 9.03031 11.2754 9.03031 11L9.03031 9C9.03031 8.72912 8.79838 8 8.53031 8C8.25417 8 8.03031 8.72458 8.03031 9L8.03031 11ZM6.03031 11C6.03031 11.2709 6.26224 12 6.53031 12C6.80645 12 7.03031 11.2754 7.03031 11L7.03031 9C7.03031 8.72912 6.79838 8 6.53031 8C6.25417 8 6.03031 8.72458 6.03031 9L6.03031 11C6.03031 11.2709 6.26224 12 6.53031 12C6.80645 12 7.03031 11.2754 7.03031 11L7.03031 9C7.03031 8.72912 6.79838 8 6.53031 8C6.25417 8 6.03031 8.72458 6.03031 9L6.03031 11Z" transform="translate(2 1)" id="path_1" />
  </defs>
  <g filter="url(#filter_1)">
    <g id="Pointer">
      <use xlink:href="#path_1" fill="none" stroke="#000000" stroke-width="2" />
      <use stroke="none" fill="#FFFFFF" xlink:href="#path_1" />
    </g>
  </g>
</svg>