<?xml version="1.0" encoding="utf-8"?>
<svg width="13px" height="13px" viewBox="0 0 13 13" version="1.1" xmlns:xlink="http://www.w3.org/1999/xlink" xmlns="http://www.w3.org/2000/svg">
  <desc>Created with Lunacy</desc>
  <path d="M13 9.43333L13 8.13333L7.52632 4.88333L7.52632 1.30833C7.52632 0.768833 7.06789 0.333333 6.5 0.333333C5.93211 0.333333 5.47368 0.768833 5.47368 1.30833L5.47368 4.88333L0 8.13333L0 9.43333L5.47368 7.80833L5.47368 11.3833L4.10526 12.3583L4.10526 13.3333L6.5 12.6833L8.89474 13.3333L8.89474 12.3583L7.52632 11.3833L7.52632 7.80833L13 9.43333L13 8.13333L7.52632 4.88333L7.52632 1.30833C7.52632 0.768833 7.06789 0.333333 6.5 0.333333C5.93211 0.333333 5.47368 0.768833 5.47368 1.30833L5.47368 4.88333L0 8.13333L0 9.43333L5.47368 7.80833L5.47368 11.3833L4.10526 12.3583L4.10526 13.3333L6.5 12.6833L8.89474 13.3333L8.89474 12.3583L7.52632 11.3833L7.52632 7.80833L13 9.43333Z" transform="matrix(1.192488E-08 1 -1 1.192488E-08 13 0)" id="Shape" fill="#D2D5D6" stroke="none" />
</svg>